# xmcd
#
# Track frame offsets:
#	150
#	4217
#	21317
#	37087
#	56730
#	74325
#	96275
#	115912
#	135170
#	149900
#	167260
#	185910
#	207225
#	234695
#
# Disc length: 3476 seconds
#
# Revision: 2
# Processed by: cddbd v1.5.2PL0 Copyright (c) Steve Scherf et al.
# Submitted via: EasyCDDAExtractor 10.1.0.1
#
DISCID=d10d920e
DTITLE=³³¦N¦N - ¤Ó¥­²±¥@
DYEAR=2005
DGENRE=Pop
TTITLE0=鬼 GHOST (OVERTURE)
TTITLE1=鬼 GHOST
TTITLE2=CATHERINE
TTITLE3=就是愛你 LOVE CAN
TTITLE4=孫子兵法 THE ART OF WAR
TTITLE5=愛我還是他 WHO DO YOU LOVE¡H
TTITLE6=SUSAN說 SUSAN SAID
TTITLE7=無緣 FATED
TTITLE8=SULA and LAMPA的寓言 SULA and LAMPA
TTITLE9=2NIGHT藏愛 2NIGHT
TTITLE10=她的歌 SONG FOR ANITA
TTITLE11=愛是個什麼東西 WHAT'S LOVE?
TTITLE12=禱告良辰歌 SWEET HOUR OF PRAYER
TTITLE13=Data Track 14
EXTD=YEAR: 2005 ID3G: 13
EXTT0=
EXTT1=
EXTT2=
EXTT3=
EXTT4=
EXTT5=
EXTT6=
EXTT7=
EXTT8=
EXTT9=
EXTT10=
EXTT11=
EXTT12=
EXTT13=
PLAYORDER=
